<svg xmlns="http://www.w3.org/2000/svg" xmlns:xlink="http://www.w3.org/1999/xlink" fill="none" version="1.1" width="25" height="23.68421173095703" viewBox="0 0 25 23.68421173095703"><defs><clipPath id="master_svg0_103_2344"><rect x="0" y="0" width="25" height="23.68421173095703" rx="0"/></clipPath></defs><g clip-path="url(#master_svg0_103_2344)"><g><path d="M21.875,16.2033609375L21.875,19.6928609375C21.8752,20.2112609375,21.4521,20.6414609375,20.9062,20.6777609375C20.451,20.7073609375,20.0792,20.7231609375,19.7917,20.7231609375C10.586459999999999,20.7231609375,3.125,13.6543609375,3.125,4.9336409375C3.125,4.6612709375,3.1406251,4.3089709375,3.1729167,3.8777219375C3.2112204,3.3606119375,3.665319,2.9597261265,4.2125,2.959961172781L7.89583,2.959961172781C8.16352,2.9597042455,8.38782,3.1517179375,8.41458,3.4040399375C8.43854,3.6310139375,8.46042,3.8116059375,8.48125,3.9487769375C8.68827,5.3174509375,9.1125,6.6486109375,9.73958,7.8971309375C9.83854,8.094500937500001,9.773959999999999,8.3303509375,9.586459999999999,8.4566709375L7.33854,9.978380937499999C8.71297,13.0123609375,11.26515,15.4302609375,14.4677,16.732360937499998L16.0719,14.6066609375C16.2072,14.4274609375,16.458399999999997,14.3655609375,16.668799999999997,14.4596609375C17.9865,15.0525609375,19.3912,15.4534609375,20.8354,15.6487609375C20.9802,15.6685609375,21.1708,15.6902609375,21.4083,15.7119609375C21.6743,15.7377609375,21.8764,15.9501609375,21.875,16.2033609375L21.875,16.2033609375Z" fill="#EB0A0A" fill-opacity="1" style="mix-blend-mode:passthrough"/></g></g></svg>