<svg xmlns="http://www.w3.org/2000/svg" xmlns:xlink="http://www.w3.org/1999/xlink" fill="none" version="1.1" width="16" height="15.1578950881958" viewBox="0 0 16 15.1578950881958"><defs><clipPath id="master_svg0_2_0322"><rect x="0" y="0" width="16" height="15.1578950881958" rx="0"/></clipPath></defs><g clip-path="url(#master_svg0_2_0322)"><g><path d="M14,10.370534873046875L14,12.603844873046874C14.0002,12.935544873046876,13.7293,13.210844873046875,13.38,13.234144873046874C13.0887,13.253044873046875,12.8507,13.263144873046874,12.6667,13.263144873046874C6.77533,13.263144873046874,2,8.739164873046875,2,3.157904873046875C2,2.9835848730468753,2.0100001,2.758111873046875,2.0306667,2.482111873046875C2.055181,2.151161873046875,2.3458040000000002,1.894594594046875,2.6959999999999997,1.894745023626875L5.05333,1.894745023626875C5.2246500000000005,1.894580590046875,5.3682,2.017469873046875,5.38533,2.178955873046875C5.40067,2.324218873046875,5.41467,2.4397978730468752,5.428,2.527586873046875C5.56049,3.4035348730468753,5.832,4.255484873046875,6.23333,5.054534873046875C6.29667,5.180854873046875,6.25533,5.331794873046875,6.13533,5.412644873046875L4.69667,6.386534873046875C5.5763,8.328294873046875,7.2097,9.875724873046874,9.25933,10.709064873046875L10.286,9.348644873046876C10.3726,9.233944873046875,10.53339,9.194334873046875,10.668,9.254534873046875C11.51135,9.634024873046876,12.4104,9.890614873046875,13.3347,10.015584873046874C13.4273,10.028214873046876,13.5493,10.042114873046875,13.7013,10.056004873046875C13.8715,10.072544873046875,14.0009,10.208454873046875,14,10.370534873046875L14,10.370534873046875Z" fill="#D6D2D2" fill-opacity="1" style="mix-blend-mode:passthrough"/></g></g></svg>